<svg width="11" height="19" viewBox="0 0 11 19" fill="none" xmlns="http://www.w3.org/2000/svg">
<path d="M8.46875 0H2.53125C1.90136 0 1.29727 0.250223 0.851871 0.695621C0.406472 1.14102 0.15625 1.74511 0.15625 2.375V16.625C0.15625 17.2549 0.406472 17.859 0.851871 18.3044C1.29727 18.7498 1.90136 19 2.53125 19H8.46875C9.09864 19 9.70273 18.7498 10.1481 18.3044C10.5935 17.859 10.8438 17.2549 10.8438 16.625V2.375C10.8438 1.74511 10.5935 1.14102 10.1481 0.695621C9.70273 0.250223 9.09864 0 8.46875 0ZM9.65625 16.625C9.65625 16.9399 9.53114 17.242 9.30844 17.4647C9.08574 17.6874 8.78369 17.8125 8.46875 17.8125H2.53125C2.21631 17.8125 1.91426 17.6874 1.69156 17.4647C1.46886 17.242 1.34375 16.9399 1.34375 16.625V2.375C1.34375 2.06006 1.46886 1.75801 1.69156 1.53531C1.91426 1.31261 2.21631 1.1875 2.53125 1.1875H2.95244C3.00986 1.18729 3.06609 1.20386 3.11422 1.23518C3.16234 1.26649 3.20027 1.31119 3.22334 1.36377C3.31554 1.57601 3.46774 1.75669 3.66124 1.8836C3.85474 2.01051 4.0811 2.07812 4.3125 2.07812H6.6875C6.9189 2.07812 7.14526 2.01051 7.33876 1.8836C7.53226 1.75669 7.68446 1.57601 7.77666 1.36377C7.79973 1.31119 7.83766 1.26649 7.88578 1.23518C7.93391 1.20386 7.99014 1.18729 8.04756 1.1875H8.46875C8.78369 1.1875 9.08574 1.31261 9.30844 1.53531C9.53114 1.75801 9.65625 2.06006 9.65625 2.375V16.625Z" fill="black"/>
</svg>
