<svg width="24" height="24" viewBox="0 0 24 24" fill="none" xmlns="http://www.w3.org/2000/svg">
<path d="M15.9727 16.148C16.2497 15.1776 16.433 14.0503 16.5028 12.968C16.5044 12.9397 16.5001 12.9114 16.4902 12.8848C16.4804 12.8583 16.4652 12.834 16.4456 12.8136C16.426 12.7932 16.4024 12.777 16.3763 12.766C16.3502 12.7551 16.3221 12.7496 16.2938 12.75H12.9628C12.9356 12.7497 12.9085 12.7549 12.8832 12.7651C12.8579 12.7753 12.8349 12.7904 12.8154 12.8095C12.796 12.8286 12.7805 12.8513 12.7698 12.8764C12.7592 12.9015 12.7535 12.9285 12.7533 12.9558V15.548C12.7539 15.6003 12.7742 15.6505 12.8102 15.6886C12.8461 15.7266 12.8951 15.7497 12.9474 15.7533C13.886 15.8291 14.8135 16.0082 15.713 16.2872C15.7659 16.3031 15.8229 16.2974 15.8716 16.2713C15.9203 16.2452 15.9566 16.2008 15.9727 16.148ZM15.1678 17.6864C14.4542 17.478 13.723 17.3354 12.9834 17.2603C12.9549 17.2571 12.926 17.2599 12.8985 17.2685C12.8711 17.2771 12.8457 17.2913 12.8241 17.3102C12.8025 17.3291 12.785 17.3523 12.7728 17.3783C12.7606 17.4044 12.754 17.4327 12.7533 17.4614V20.5195C12.7544 20.556 12.765 20.5915 12.7841 20.6227C12.8032 20.6538 12.8301 20.6793 12.8621 20.6969C12.8941 20.7144 12.9302 20.7232 12.9667 20.7226C13.0032 20.7219 13.0388 20.7117 13.0702 20.693C13.8155 20.2584 14.4295 19.5286 14.9845 18.5634C15.0755 18.4059 15.2138 18.1345 15.2972 17.9686C15.3102 17.9419 15.317 17.9127 15.3174 17.883C15.3177 17.8533 15.3115 17.8239 15.2991 17.797C15.2867 17.77 15.2685 17.7461 15.2458 17.727C15.2231 17.7079 15.1965 17.694 15.1678 17.6864ZM11.0292 17.2687C10.2905 17.339 9.55994 17.4774 8.84673 17.6822C8.72298 17.7178 8.67095 17.8884 8.7272 18.0005C8.8111 18.1673 8.9147 18.3806 9.00329 18.54C9.61267 19.6181 10.2614 20.2978 10.9364 20.693C10.9678 20.7117 11.0034 20.7219 11.0399 20.7226C11.0764 20.7232 11.1124 20.7144 11.1445 20.6969C11.1765 20.6793 11.2034 20.6538 11.2224 20.6227C11.2415 20.5915 11.2522 20.556 11.2533 20.5195V17.46C11.2531 17.4321 11.2468 17.4045 11.235 17.3792C11.2232 17.3539 11.2061 17.3314 11.1849 17.3132C11.1637 17.2951 11.1388 17.2817 11.1119 17.2741C11.085 17.2664 11.0569 17.2646 11.0292 17.2687ZM11.0438 12.75H7.71282C7.68455 12.7496 7.6565 12.7551 7.63042 12.766C7.60433 12.7769 7.58076 12.793 7.56116 12.8134C7.54157 12.8338 7.52636 12.858 7.51649 12.8845C7.50662 12.911 7.50228 12.9392 7.50376 12.9675C7.57314 14.0484 7.75548 15.1781 8.03157 16.1475C8.0394 16.174 8.05242 16.1987 8.06987 16.2202C8.08732 16.2416 8.10885 16.2594 8.13322 16.2725C8.1576 16.2856 8.18432 16.2937 8.21185 16.2964C8.23938 16.2991 8.26717 16.2962 8.2936 16.2881C9.193 16.0091 10.1205 15.8305 11.0592 15.7556C11.1116 15.7522 11.1607 15.7291 11.1967 15.6911C11.2328 15.653 11.2532 15.6027 11.2538 15.5503V12.9562C11.2536 12.9289 11.248 12.9018 11.2373 12.8767C11.2267 12.8515 11.2111 12.8286 11.1916 12.8095C11.1721 12.7903 11.149 12.7752 11.1236 12.765C11.0982 12.7548 11.0711 12.7497 11.0438 12.75ZM12.9844 6.73967C13.7235 6.67042 14.4537 6.52688 15.1641 6.31123C15.1926 6.30353 15.2191 6.28965 15.2416 6.27058C15.2642 6.25151 15.2822 6.22772 15.2946 6.20089C15.3069 6.17406 15.3132 6.14484 15.313 6.11531C15.3128 6.08578 15.3061 6.05665 15.2934 6.02998C15.2095 5.86264 15.0933 5.62311 15.0042 5.46326C14.4281 4.43201 13.7789 3.71248 13.0711 3.30701C13.0397 3.28845 13.0041 3.27836 12.9677 3.27774C12.9312 3.27712 12.8952 3.286 12.8633 3.3035C12.8313 3.321 12.8044 3.34651 12.7853 3.37754C12.7662 3.40856 12.7555 3.44403 12.7542 3.48045V6.53811C12.7549 6.56686 12.7615 6.59516 12.7737 6.62122C12.7859 6.64727 12.8034 6.67051 12.825 6.68946C12.8467 6.70841 12.872 6.72266 12.8994 6.7313C12.9269 6.73994 12.9558 6.74279 12.9844 6.73967ZM12.9628 11.25H16.2938C16.3218 11.2505 16.3497 11.2452 16.3756 11.2345C16.4016 11.2238 16.4251 11.2079 16.4447 11.1878C16.4642 11.1677 16.4795 11.1438 16.4895 11.1176C16.4995 11.0913 16.504 11.0633 16.5028 11.0353C16.4334 9.96795 16.2558 8.79467 15.9797 7.83748C15.9716 7.81117 15.9584 7.7867 15.9409 7.7655C15.9233 7.74429 15.9018 7.72676 15.8774 7.71391C15.8531 7.70106 15.8264 7.69315 15.799 7.69063C15.7716 7.6881 15.744 7.69102 15.7177 7.6992C14.827 7.96826 13.8994 8.18811 12.9478 8.2617C12.8958 8.26465 12.8469 8.28717 12.8108 8.32474C12.7747 8.3623 12.7542 8.41212 12.7533 8.4642V11.0475C12.7543 11.1021 12.7769 11.1541 12.8162 11.1921C12.8555 11.23 12.9082 11.2509 12.9628 11.25ZM10.9364 3.30748C10.2136 3.7092 9.56907 4.45264 8.99251 5.48108C8.90298 5.64092 8.7961 5.86123 8.71126 6.02811C8.69865 6.05478 8.69203 6.0839 8.69187 6.11341C8.69172 6.14291 8.69803 6.1721 8.71036 6.1989C8.72269 6.22571 8.74074 6.24949 8.76325 6.26858C8.78576 6.28766 8.81217 6.30158 8.84064 6.30936C9.55068 6.52896 10.2819 6.67304 11.0222 6.7392C11.0508 6.74232 11.0796 6.73949 11.107 6.73087C11.1344 6.72226 11.1598 6.70805 11.1814 6.68915C11.203 6.67025 11.2205 6.64707 11.2327 6.62107C11.2449 6.59507 11.2516 6.56682 11.2524 6.53811V3.48092C11.2509 3.44469 11.2401 3.40946 11.221 3.37865C11.2019 3.34783 11.1751 3.32247 11.1433 3.30502C11.1116 3.28757 11.0758 3.27863 11.0396 3.27906C11.0033 3.27949 10.9678 3.28928 10.9364 3.30748ZM11.0588 8.26217C10.1072 8.18951 9.1786 7.96967 8.28892 7.69967C8.26263 7.69148 8.23499 7.68857 8.20758 7.69109C8.18017 7.69362 8.15352 7.70153 8.12918 7.71438C8.10483 7.72723 8.08326 7.74476 8.06571 7.76596C8.04815 7.78717 8.03496 7.81163 8.02689 7.83795C7.75079 8.79514 7.57314 9.96842 7.50376 11.0358C7.50254 11.0638 7.50707 11.0918 7.51707 11.118C7.52708 11.1443 7.54234 11.1682 7.56192 11.1883C7.5815 11.2084 7.60499 11.2243 7.63094 11.235C7.65689 11.2457 7.68476 11.2509 7.71282 11.2505H11.0438C11.0709 11.2509 11.0978 11.246 11.1231 11.236C11.1483 11.226 11.1713 11.2111 11.1907 11.1922C11.2102 11.1733 11.2257 11.1508 11.2365 11.1258C11.2472 11.1009 11.2529 11.0741 11.2533 11.047V8.46467C11.2524 8.41259 11.2319 8.36277 11.1958 8.3252C11.1597 8.28764 11.1108 8.26512 11.0588 8.26217Z" fill="#707070"/>
<path d="M19.4245 4.57546C18.4513 3.59256 17.2934 2.81166 16.0174 2.27761C14.7414 1.74355 13.3725 1.46688 11.9893 1.46347C10.6061 1.46007 9.23579 1.73 7.9572 2.25777C6.67862 2.78553 5.51691 3.56073 4.53882 4.53882C3.56073 5.51691 2.78553 6.67862 2.25777 7.9572C1.73 9.23579 1.46007 10.6061 1.46347 11.9893C1.46688 13.3725 1.74355 14.7414 2.27761 16.0174C2.81166 17.2934 3.59256 18.4513 4.57546 19.4245C5.54872 20.4074 6.7066 21.1883 7.98257 21.7224C9.25855 22.2564 10.6275 22.5331 12.0107 22.5365C13.3939 22.5399 14.7642 22.27 16.0428 21.7422C17.3214 21.2144 18.4831 20.4392 19.4612 19.4612C20.4392 18.4831 21.2144 17.3214 21.7422 16.0428C22.27 14.7642 22.5399 13.3939 22.5365 12.0107C22.5331 10.6275 22.2564 9.25855 21.7224 7.98257C21.1883 6.7066 20.4074 5.54872 19.4245 4.57546ZM8.27811 20.1961C8.06691 19.8995 7.87164 19.5919 7.69311 19.2745C7.59936 19.1016 7.46624 18.8405 7.37764 18.659C7.35734 18.616 7.32827 18.5777 7.29229 18.5466C7.25632 18.5154 7.21424 18.4921 7.16874 18.4782C7.12325 18.4642 7.07534 18.4599 7.02809 18.4656C6.98085 18.4712 6.9353 18.4867 6.89436 18.5109C6.6928 18.6239 6.42561 18.7791 6.23202 18.9061C5.82604 18.5975 5.4555 18.2449 5.12717 17.8547C5.58122 17.5342 6.05759 17.2466 6.55264 16.9941C6.63983 16.9472 6.68249 16.8937 6.65483 16.7981C6.29212 15.5428 6.0706 14.2509 5.99436 12.9464C5.99209 12.8942 5.96994 12.8449 5.93246 12.8086C5.89498 12.7722 5.84501 12.7516 5.7928 12.7509H3.13311C3.1105 12.7512 3.08856 12.7433 3.07134 12.7286C3.05411 12.714 3.04275 12.6936 3.03936 12.6712C3.0099 12.4487 2.99674 12.2244 2.99999 12C2.99678 11.776 3.01026 11.5521 3.0403 11.3301C3.04369 11.3078 3.05505 11.2874 3.07227 11.2728C3.0895 11.2581 3.11144 11.2502 3.13405 11.2505H5.79374C5.90108 11.2505 5.98921 11.1886 5.99483 11.0803C6.07005 9.78126 6.29017 8.49468 6.65108 7.24452C6.66452 7.19889 6.66162 7.14999 6.64288 7.10627C6.62414 7.06254 6.59074 7.02673 6.54842 7.00499C6.064 6.75677 5.59671 6.47646 5.14967 6.16592C5.47625 5.77583 5.83948 5.41794 6.23436 5.09717C6.42561 5.2228 6.67499 5.36483 6.87467 5.47733C6.91868 5.50235 6.96735 5.51806 7.01768 5.5235C7.068 5.52895 7.11891 5.524 7.16725 5.50897C7.21558 5.49394 7.26032 5.46915 7.29869 5.43613C7.33705 5.40312 7.36824 5.36258 7.3903 5.31702C7.47843 5.13561 7.5778 4.93358 7.67436 4.76014C7.85366 4.43887 8.04987 4.12734 8.26217 3.82686C9.43096 3.27624 10.708 2.99373 12 2.99999C13.3566 2.99999 14.6203 3.32811 15.7748 3.8653C15.9787 4.15152 16.1665 4.44885 16.3373 4.75592C16.4587 4.97436 16.5876 5.24202 16.6964 5.47405C16.7081 5.49876 16.7247 5.52083 16.7452 5.53891C16.7656 5.55699 16.7896 5.5707 16.8156 5.57921C16.8416 5.58773 16.869 5.59085 16.8962 5.58841C16.9234 5.58596 16.9499 5.57799 16.9739 5.56499C17.2261 5.42858 17.4994 5.27155 17.7398 5.11358C18.1358 5.4375 18.5 5.79852 18.8273 6.19171C18.3925 6.49325 17.9374 6.76436 17.4651 7.00311C17.4228 7.02487 17.3893 7.06079 17.3707 7.10463C17.352 7.14848 17.3493 7.19747 17.363 7.24311C17.7297 8.48478 17.9477 9.76564 18.0122 11.0587C18.0147 11.1106 18.037 11.1595 18.0745 11.1955C18.112 11.2314 18.1618 11.2516 18.2137 11.2519L20.8678 11.2486C20.8904 11.2483 20.9123 11.2562 20.9296 11.2709C20.9468 11.2855 20.9582 11.3059 20.9615 11.3283C21.0162 11.7738 21.0162 12.2243 20.9615 12.6698C20.9584 12.6924 20.9471 12.713 20.9299 12.7278C20.9126 12.7426 20.8905 12.7507 20.8678 12.7505H18.2114C18.1592 12.751 18.1091 12.7716 18.0716 12.808C18.0341 12.8443 18.012 12.8937 18.0098 12.9459C17.9368 14.2366 17.7187 15.515 17.3597 16.7569C17.3461 16.803 17.3489 16.8525 17.3676 16.8968C17.3863 16.9412 17.4198 16.9777 17.4623 17.0001C17.6967 17.1216 17.9578 17.257 18.1828 17.3948C18.4078 17.5326 18.6305 17.6798 18.8451 17.8326C18.5203 18.224 18.1594 18.5839 17.767 18.9075C17.6526 18.832 17.5167 18.7462 17.3995 18.6759C17.3189 18.6291 17.1703 18.5461 17.0878 18.4997C16.9087 18.3994 16.7184 18.4744 16.6289 18.659C16.5394 18.8437 16.4025 19.1086 16.3069 19.2801C16.1306 19.5956 15.9374 19.9012 15.728 20.1956C14.5739 20.7361 13.3566 21 12 21C10.6434 21 9.43264 20.7361 8.27811 20.1961Z" fill="#707070"/>
</svg>
