<svg width="19" height="19" viewBox="0 0 19 19" fill="none" xmlns="http://www.w3.org/2000/svg">
<g clip-path="url(#clip0_6716_89126)">
<path d="M12.4688 0H6.53125C5.90136 0 5.29727 0.250223 4.85187 0.695621C4.40647 1.14102 4.15625 1.74511 4.15625 2.375V16.625C4.15625 17.2549 4.40647 17.859 4.85187 18.3044C5.29727 18.7498 5.90136 19 6.53125 19H12.4688C13.0986 19 13.7027 18.7498 14.1481 18.3044C14.5935 17.859 14.8438 17.2549 14.8438 16.625V2.375C14.8438 1.74511 14.5935 1.14102 14.1481 0.695621C13.7027 0.250223 13.0986 0 12.4688 0ZM13.6562 16.625C13.6562 16.9399 13.5311 17.242 13.3084 17.4647C13.0857 17.6874 12.7837 17.8125 12.4688 17.8125H6.53125C6.21631 17.8125 5.91426 17.6874 5.69156 17.4647C5.46886 17.242 5.34375 16.9399 5.34375 16.625V2.375C5.34375 2.06006 5.46886 1.75801 5.69156 1.53531C5.91426 1.31261 6.21631 1.1875 6.53125 1.1875H6.95244C7.00986 1.18729 7.06609 1.20386 7.11422 1.23518C7.16234 1.26649 7.20027 1.31119 7.22334 1.36377C7.31554 1.57601 7.46774 1.75669 7.66124 1.8836C7.85474 2.01051 8.0811 2.07812 8.3125 2.07812H10.6875C10.9189 2.07812 11.1453 2.01051 11.3388 1.8836C11.5323 1.75669 11.6845 1.57601 11.7767 1.36377C11.7997 1.31119 11.8377 1.26649 11.8858 1.23518C11.9339 1.20386 11.9901 1.18729 12.0476 1.1875H12.4688C12.7837 1.1875 13.0857 1.31261 13.3084 1.53531C13.5311 1.75801 13.6562 2.06006 13.6562 2.375V16.625Z" fill="black"/>
<path d="M12.4688 1.78126C12.4003 1.78084 12.3328 1.79635 12.2714 1.82656C12.21 1.85676 12.1565 1.90084 12.1151 1.9553C11.9493 2.17763 11.734 2.35818 11.4861 2.48259C11.2383 2.60699 10.9648 2.67181 10.6875 2.67188H8.3125C8.03519 2.67181 7.76172 2.60699 7.51387 2.48259C7.26603 2.35818 7.05066 2.17763 6.8849 1.9553C6.8435 1.90084 6.78999 1.85676 6.72861 1.82656C6.66723 1.79635 6.59966 1.78084 6.53125 1.78126C6.37378 1.78126 6.22276 1.84381 6.11141 1.95516C6.00006 2.06651 5.9375 2.21754 5.9375 2.37501V16.625C5.9375 16.7825 6.00006 16.9335 6.11141 17.0449C6.22276 17.1562 6.37378 17.2188 6.53125 17.2188H12.4688C12.6262 17.2188 12.7772 17.1562 12.8886 17.0449C12.9999 16.9335 13.0625 16.7825 13.0625 16.625V2.37501C13.0625 2.21754 12.9999 2.06651 12.8886 1.95516C12.7772 1.84381 12.6262 1.78126 12.4688 1.78126Z" fill="black"/>
<path d="M12.4688 0H6.53125C5.90136 0 5.29727 0.250223 4.85187 0.695621C4.40647 1.14102 4.15625 1.74511 4.15625 2.375V16.625C4.15625 17.2549 4.40647 17.859 4.85187 18.3044C5.29727 18.7498 5.90136 19 6.53125 19H12.4688C13.0986 19 13.7027 18.7498 14.1481 18.3044C14.5935 17.859 14.8438 17.2549 14.8438 16.625V2.375C14.8438 1.74511 14.5935 1.14102 14.1481 0.695621C13.7027 0.250223 13.0986 0 12.4688 0ZM13.6562 16.625C13.6562 16.9399 13.5311 17.242 13.3084 17.4647C13.0857 17.6874 12.7837 17.8125 12.4688 17.8125H6.53125C6.21631 17.8125 5.91426 17.6874 5.69156 17.4647C5.46886 17.242 5.34375 16.9399 5.34375 16.625V2.375C5.34375 2.06006 5.46886 1.75801 5.69156 1.53531C5.91426 1.31261 6.21631 1.1875 6.53125 1.1875H6.95244C7.00986 1.18729 7.06609 1.20386 7.11422 1.23518C7.16234 1.26649 7.20027 1.31119 7.22334 1.36377C7.31554 1.57601 7.46774 1.75669 7.66124 1.8836C7.85474 2.01051 8.0811 2.07812 8.3125 2.07812H10.6875C10.9189 2.07812 11.1453 2.01051 11.3388 1.8836C11.5323 1.75669 11.6845 1.57601 11.7767 1.36377C11.7997 1.31119 11.8377 1.26649 11.8858 1.23518C11.9339 1.20386 11.9901 1.18729 12.0476 1.1875H12.4688C12.7837 1.1875 13.0857 1.31261 13.3084 1.53531C13.5311 1.75801 13.6562 2.06006 13.6562 2.375V16.625Z" fill="black"/>
</g>
<defs>
<clipPath id="clip0_6716_89126">
<rect width="19" height="19" fill="white"/>
</clipPath>
</defs>
</svg>
